<mxfile host="app.diagrams.net" modified="2024-05-28T01:39:19.862Z" agent="Mozilla/5.0 (Windows NT 10.0; Win64; x64) AppleWebKit/537.36 (KHTML, like Gecko) Chrome/125.0.0.0 Safari/537.36" version="24.4.9" etag="_le7_jV0z_WSvN0jrojf" type="github">
  <diagram name="PÃ¡gina-1" id="XKIYjKsD18wyvZPJk1Fd">
    <mxGraphModel>
      <root>
        <mxCell id="0" />
        <mxCell id="1" parent="0" />
      </root>
    </mxGraphModel>
  </diagram>
</mxfile>
